<svg width="18" height="18" viewBox="0 0 18 18" fill="none" xmlns="http://www.w3.org/2000/svg">
<path d="M9 0.875C7.39303 0.875 5.82214 1.35152 4.486 2.24431C3.14985 3.1371 2.10844 4.40605 1.49348 5.8907C0.87852 7.37535 0.717618 9.00901 1.03112 10.5851C1.34463 12.1612 2.11846 13.6089 3.25476 14.7452C4.39106 15.8815 5.8388 16.6554 7.4149 16.9689C8.99099 17.2824 10.6247 17.1215 12.1093 16.5065C13.594 15.8916 14.8629 14.8502 15.7557 13.514C16.6485 12.1779 17.125 10.607 17.125 9C17.1227 6.84581 16.266 4.78051 14.7427 3.25727C13.2195 1.73403 11.1542 0.877275 9 0.875ZM15.875 9C15.8766 10.6074 15.3121 12.1641 14.2805 13.3969L4.60313 3.71875C5.60703 2.88358 6.82804 2.35159 8.12326 2.18506C9.41849 2.01853 10.7344 2.22433 11.9169 2.77838C13.0994 3.33243 14.0997 4.21182 14.8006 5.31363C15.5016 6.41545 15.8743 7.69411 15.875 9ZM2.125 9C2.1234 7.39255 2.68793 5.83588 3.71953 4.60313L13.3969 14.2812C12.393 15.1164 11.172 15.6484 9.87674 15.8149C8.58152 15.9815 7.26565 15.7757 6.08313 15.2216C4.9006 14.6676 3.90033 13.7882 3.19937 12.6864C2.49841 11.5846 2.12575 10.3059 2.125 9Z" fill="currentColor"/>
</svg>
